<?xml version="1.0" encoding="UTF-8" standalone="no"?>
<!DOCTYPE svg PUBLIC "-//W3C//DTD SVG 1.1//EN" "http://www.w3.org/Graphics/SVG/1.1/DTD/svg11.dtd">
<svg width="1117.09" height="1117.09" viewBox="0.00 0.00 2048.00 2048.00" xmlns="http://www.w3.org/2000/svg" xmlns:xlink="http://www.w3.org/1999/xlink">
<g stroke-linecap="round" id="big_ring">
<path d="M1980.16,794.30 C1983.55,809.40 1989.72,839.95 1992.50,855.40 C1994.96,870.93 1999.53,901.94 2001.41,917.37 C2003.07,932.76 2005.26,963.70 2006.03,979.31 C2006.48,995.03 2007.03,1026.44 2006.92,1042.06 C2006.58,1057.61 2005.03,1088.52 2003.80,1104.01 C2002.34,1119.57 1998.64,1150.77 1996.62,1166.37 C1994.29,1181.81 1988.99,1212.38 1985.81,1227.52 C1982.38,1242.69 1974.72,1273.08 1970.72,1288.29 C1966.40,1303.38 1957.20,1333.16 1952.31,1347.84 C1947.00,1362.38 1935.67,1391.41 1929.66,1405.91 C1923.33,1420.31 1910.41,1448.87 1903.65,1462.87 C1896.72,1476.71 1881.83,1503.93 1874.05,1517.47 C1865.92,1530.93 1849.40,1557.66 1840.86,1570.74 C1832.18,1583.64 1814.16,1608.80 1804.75,1621.17 C1795.11,1633.47 1775.13,1657.71 1765.00,1669.74 C1754.68,1681.47 1733.71,1704.33 1722.84,1715.35 C1711.76,1726.25 1688.88,1747.68 1677.29,1758.31 C1665.50,1768.67 1641.66,1788.74 1629.61,1798.45 C1617.28,1807.81 1592.05,1826.11 1579.15,1835.06 C1566.05,1843.75 1539.74,1860.79 1526.48,1868.91 C1513.17,1876.81 1485.93,1891.66 1472.06,1898.84 C1457.95,1905.77 1429.60,1919.33 1415.34,1925.72 C1401.07,1931.87 1372.30,1943.29 1357.70,1948.62 C1342.94,1953.75 1313.02,1963.34 1298.00,1967.99 C1282.98,1972.28 1252.97,1980.16 1237.87,1983.55 C1222.66,1986.74 1191.83,1992.40 1176.33,1995.07 C1160.81,1997.42 1129.90,2001.41 1114.51,2003.07 C1099.08,2004.27 1067.97,2006.03 1052.28,2006.58 C1036.55,2006.81 1005.21,2006.92 989.67,2006.58 C974.20,2006.03 943.26,2003.80 927.71,2002.34 C912.08,2000.54 880.91,1996.62 865.46,1994.29 C850.12,1991.75 819.75,1985.81 804.58,1982.38 C789.40,1978.73 759.04,1970.62 743.89,1966.40 C728.93,1961.90 699.43,1952.31 684.89,1947.00 C670.37,1941.45 641.38,1929.54 626.89,1923.42 C612.57,1917.00 584.40,1903.65 570.57,1896.72 C556.93,1889.39 529.81,1874.05 516.31,1866.03 C502.96,1857.72 476.53,1840.86 463.64,1832.18 C450.93,1823.35 426.10,1804.75 413.81,1795.11 C401.64,1785.15 377.53,1765.00 365.80,1754.68 C354.27,1744.25 331.93,1722.84 321.02,1711.76 C310.22,1700.47 289.07,1677.24 278.60,1665.50 C268.45,1653.62 248.82,1629.61 239.46,1617.28 C230.24,1604.76 212.29,1579.07 203.42,1566.08 C194.84,1552.94 178.36,1526.48 170.47,1513.17 C162.96,1499.64 148.43,1472.06 141.41,1458.02 C134.68,1443.81 121.56,1415.34 115.40,1401.07 C109.48,1386.77 98.66,1357.70 93.52,1342.94 C88.67,1327.99 79.29,1298.00 74.99,1282.98 C70.93,1267.97 63.72,1237.87 60.53,1222.66 C57.55,1207.33 52.31,1176.34 49.85,1160.81 C47.74,1145.33 44.21,1114.51 43.00,1099.08 C42.01,1083.57 40.80,1052.25 40.36,1036.53 C40.24,1020.83 40.69,989.67 41.24,974.20 C42.24,958.76 44.93,927.71 46.62,912.10 C48.63,896.50 52.99,865.46 55.53,850.12 C58.28,834.89 64.89,804.58 68.54,789.40 C72.55,774.19 80.87,743.89 85.38,728.93 C90.07,714.11 100.28,684.89 105.82,670.37 C111.60,655.86 123.95,626.96 130.28,612.57 C136.87,598.40 150.56,570.57 157.88,556.93 C165.44,543.35 181.35,516.34 189.48,502.88 C197.87,489.61 215.09,463.64 223.92,450.93 C233.11,438.47 252.16,413.81 262.02,401.59 C272.15,389.56 292.59,365.80 303.02,354.27 C313.57,342.94 335.51,321.02 346.80,310.22 C358.39,299.59 381.77,278.60 393.65,268.45 C405.61,258.53 429.99,239.46 442.51,230.24 C455.22,221.16 481.23,203.52 494.34,194.84 C507.54,186.49 534.10,170.47 547.64,162.96 C561.34,155.61 589.33,141.50 603.44,134.57 C617.67,127.95 646.21,115.40 660.50,109.48 C674.97,103.98 704.33,93.52 719.22,88.57 C734.25,83.93 764.29,74.99 779.30,70.93 C794.30,67.11 824.61,60.53 839.95,57.55 C855.44,54.87 886.46,49.85 901.94,47.74 C917.37,45.86 948.19,43.00 963.70,42.01 C979.31,41.24 1010.72,40.47 1026.44,40.24 C1042.06,40.35 1073.07,41.24 1088.52,42.24 C1104.01,43.47 1135.19,46.73 1150.81,48.53 C1166.37,50.65 1197.15,55.53 1212.38,58.28 C1227.52,61.47 1257.87,68.54 1273.08,72.43 C1288.23,76.65 1318.34,85.38 1333.16,90.07 C1347.84,94.96 1376.90,105.82 1391.41,111.60 C1405.90,117.73 1434.71,130.28 1448.87,136.87 C1462.87,143.63 1490.34,157.88 1503.93,165.44 C1517.47,173.22 1544.31,189.56 1557.66,197.87 C1570.74,206.41 1596.35,223.92 1608.80,233.11 C1621.17,242.53 1645.64,262.12 1657.81,272.08 C1669.74,282.28 1693.00,303.02 1704.33,313.57 C1715.35,324.44 1737.05,346.80 1747.74,358.30 C1758.21,370.03 1778.82,393.65 1788.74,405.61 C1798.45,417.67 1817.03,442.51 1826.11,455.22 C1834.99,468.21 1852.44,494.34 1860.79,507.54 C1868.91,520.79 1884.31,547.64 1891.66,561.34 C1898.84,575.21 1912.59,603.46 1919.33,617.67 C1925.72,631.93 1937.79,660.50 1943.29,674.97 C1948.62,689.58 1958.60,719.29 1963.46,734.25 C1967.99,749.28 1976.34,779.30 1980.16,794.30 Z" fill="none" stroke="rgb(180, 41, 249)" stroke-width="75.00" stroke-opacity="1.00" stroke-linejoin="round"/>
</g>
<g stroke-linecap="round" id="triangle_filling">
<path d="M1229.42,782.22 L1418.13,636.64 L1415.86,916.45 L1229.42,782.22 Z" fill="none" stroke="rgb(90, 15, 130)" stroke-width="200.00" stroke-opacity="1.00" stroke-linejoin="miter"/>
<path d="M1343.35,782.12 L1343.35,782.12" fill="none" stroke="rgb(90, 15, 130)" stroke-width="319.60" stroke-opacity="1.00" stroke-linejoin="round"/>
</g>
<g stroke-linecap="round" id="triangle_outline">
<path d="M1144.50,757.00 L1497.00,484.00 L1497.00,1096.00 L1118.95,779.45 L1144.50,757.00 Z" fill="none" stroke="rgb(180, 41, 249)" stroke-width="65.00" stroke-opacity="1.00" stroke-linejoin="miter"/>
</g>
<g stroke-linecap="round" id="logo_filling">
<path d="M1001.43,846.67 C553.50,846.67 771.30,702.13 821.26,718.36 C890.69,718.36 941.04,711.62 998.89,708.31" fill="none" stroke="rgb(90, 15, 130)" stroke-width="319.60" stroke-opacity="1.00" stroke-linejoin="round"/>
<path d="M840.10,893.38 L1045.01,893.38 L1057.30,659.79 L836.01,651.59" fill="none" stroke="rgb(90, 15, 130)" stroke-width="200.00" stroke-opacity="1.00" stroke-linejoin="miter"/>
</g>
<g stroke-linecap="round" id="logo_outline">
<path d="M762.22,973.33 L1131.11,973.33 L1131.11,580.00 L757.78,580.00" fill="none" stroke="rgb(180, 41, 249)" stroke-width="65.00" stroke-opacity="1.00" stroke-linejoin="miter"/>
<path d="M758.00,973.00 Q597.00,973.00 597.27,774.55 Q597.27,580.00 763.64,579.90" fill="none" stroke="rgb(180, 41, 249)" stroke-width="65.00" stroke-opacity="1.00" stroke-linejoin="round"/>
<path d="M1131.48,972.20 Q1129.25,1222.70 1127.02,1473.20 Q1127.00,1475.89 1126.97,1478.59 Q1122.46,1676.93 925.62,1679.94 Q925.62,1679.94 924.13,1679.94 Q834.88,1679.94 747.11,1679.94" fill="none" stroke="rgb(180, 41, 249)" stroke-width="65.00" stroke-opacity="1.00" stroke-linejoin="round"/>
</g>
<g stroke-linecap="round" id="outer_ring">
<path d="M689.26,1675.64 C688.80,1672.28 689.66,1664.45 691.06,1660.99 C692.67,1657.17 696.73,1651.76 699.94,1649.14 C702.87,1646.82 710.15,1643.81 713.50,1643.31 C716.85,1642.85 724.68,1643.70 728.14,1645.11 C731.96,1646.72 737.38,1650.78 739.99,1653.99 C742.31,1656.92 745.33,1664.20 745.83,1667.55 C746.28,1670.90 745.43,1678.73 744.02,1682.19 C742.41,1686.01 738.35,1691.42 735.14,1694.04 C732.21,1696.36 724.93,1699.37 721.59,1699.87 C718.23,1700.33 710.40,1699.48 706.94,1698.07 C703.12,1696.46 697.71,1692.40 695.09,1689.19 C692.78,1686.26 689.76,1678.98 689.26,1675.64 Z" fill="none" stroke="rgb(179, 42, 250)" stroke-width="150.00" stroke-opacity="1.00" stroke-linejoin="round"/>
</g>
<g stroke-linecap="round" id="inner_dot">
<path d="M716.36,1673.94 Q716.36,1673.33 716.36,1673.94" fill="none" stroke="rgb(90, 15, 130)" stroke-width="153.40" stroke-opacity="1.00" stroke-linejoin="round"/>
</g>
<g stroke-linecap="round" id="white_ring">
<path d="M692.90,1608.21 C695.95,1607.06 704.07,1605.06 707.98,1604.49 C711.73,1603.97 719.57,1603.64 723.40,1604.03 C727.38,1604.45 734.96,1606.00 738.69,1607.15 C742.94,1608.49 748.89,1611.17 752.72,1613.47 C756.04,1615.49 762.23,1620.14 765.19,1622.84 C768.01,1625.46 772.96,1631.55 775.05,1634.70 C777.23,1638.01 781.11,1645.41 782.27,1648.46 C783.42,1651.51 785.42,1659.63 785.99,1663.54 C786.51,1667.29 786.84,1675.13 786.45,1678.96 C786.03,1682.94 784.48,1690.52 783.33,1694.25 C781.99,1698.50 779.31,1704.45 777.01,1708.28 C774.99,1711.60 770.34,1717.79 767.64,1720.75 C765.02,1723.57 758.93,1728.52 755.78,1730.62 C752.47,1732.79 745.07,1736.67 742.02,1737.83 C738.97,1738.98 730.85,1740.98 726.94,1741.55 C723.19,1742.07 715.35,1742.40 711.52,1742.01 C707.54,1741.59 699.96,1740.04 696.23,1738.89 C691.98,1737.55 686.03,1734.87 682.20,1732.57 C678.88,1730.55 672.69,1725.90 669.74,1723.20 C666.91,1720.58 661.96,1714.49 659.87,1711.34 C657.69,1708.03 653.81,1700.63 652.65,1697.58 C651.50,1694.53 649.50,1686.41 648.93,1682.50 C648.41,1678.75 648.08,1670.91 648.47,1667.08 C648.89,1663.10 650.44,1655.52 651.59,1651.79 C652.93,1647.54 655.61,1641.59 657.91,1637.77 C659.93,1634.44 664.58,1628.25 667.28,1625.30 C669.90,1622.47 675.99,1617.52 679.14,1615.43 C682.45,1613.25 689.85,1609.37 692.90,1608.21 Z" fill="none" stroke="rgb(255, 255, 255)" stroke-width="25.00" stroke-opacity="1.00" stroke-linejoin="round"/>
</g>
</svg>
